<?xml version="1.0" encoding="UTF-8"?>
<svg id="Layer_1" xmlns="http://www.w3.org/2000/svg" version="1.1" viewBox="0 0 1500 1500">
  <!-- Generator: Adobe Illustrator 29.8.1, SVG Export Plug-In . SVG Version: 2.1.1 Build 2)  -->
  <g>
    <path d="M276.26,997.95v-89.9h13.56v89.9h-13.56ZM323.08,933.85c0-11.17-7.71-21.94-27.26-25.53,2.39-.27,4.79-.4,7.05-.4,18.88,0,33.65,8.78,33.65,20.48,0,9.71-10.24,16.76-19.15,19.28,4.65-3.99,5.72-9.71,5.72-13.83ZM302.33,998.09c-2.13,0-4.39-.13-6.52-.4,21.94-2.13,29.79-12.23,29.79-22.74s-7.98-19.42-29.79-23.01c2.93-.4,5.85-.53,8.51-.53,21.01,0,35.77,8.64,35.77,22.34,0,14.9-17.69,24.34-37.77,24.34Z"/>
    <path d="M362.6,997.95l32.85-66.89-19.02,66.89h-13.83ZM434.02,997.95l-13.7-28.59-29.26-1.06,26.2-5.45-26.2-54.79h14.1l42.96,89.9h-14.1Z"/>
    <path d="M477.47,997.95v-89.9h13.7v89.9h-13.7ZM536.92,997.95l-41.09-47.21c9.18,0,17.82,3.46,25.53,11.57l33.91,35.64h-18.35ZM507.66,947.82l27.66-39.76h18.49l-46.15,39.76Z"/>
    <path d="M584.93,997.95v-89.9h13.56v89.9h-13.56ZM604.48,908.05h35.24l1.99,13.96-37.24-13.96ZM604.48,952.07l31.52-6.65-1.6,13.17-29.92-6.52ZM604.48,997.95l40.56-14.36-4.65,14.36h-35.91Z"/>
    <path d="M678.78,997.95v-89.9h13.56v89.9h-13.56ZM744.75,997.95v-42.56l-46.41-1.73,46.41-5.32v-40.3h13.57v89.9h-13.57Z"/>
    <path d="M793.17,955.4c0-21.68,15.56-44.82,43.89-48.81-19.55,10.24-28.99,28.06-28.99,45.75,0,18.62,10.51,37.5,30.72,47.21-29.66-1.06-45.62-22.21-45.62-44.15ZM873.76,953.67c0-18.62-10.51-37.5-30.72-47.21,29.66,1.06,45.62,22.21,45.62,44.15s-15.56,44.82-43.89,48.81c19.55-10.24,28.99-28.06,28.99-45.75Z"/>
    <path d="M922.72,908.05h13.56v52.53c0,23.01,18.62,30.85,30.72,30.85s24.47-10.64,28.59-21.01c-.4,10.91-11.84,29.13-34.18,29.13-20.75,0-38.7-13.3-38.7-38.03v-53.46ZM985.36,908.05h13.43l-3.32,56.39-10.11-56.39Z"/>
    <path d="M1031.63,978.27c8.11,8.51,17.82,15.56,28.06,21.15-9.18,0-22.74-2.13-30.45-5.98l2.39-15.16ZM1079.64,980.53c0-22.34-47.34-22.87-47.34-49.21,0-12.1,10.11-20.08,19.42-23.27-5.19,5.32-8.64,9.84-8.64,16.22,0,23.54,47.35,22.87,47.35,50.27,0,11.04-7.71,21.01-24.87,24.47,7.31-3.86,14.1-10.11,14.1-18.49ZM1084.43,924.81c-8.11-7.58-16.89-13.03-27-17.69,1.73-.4,5.45-.53,7.85-.53,7.58,0,14.63,1.33,20.75,3.72l-1.6,14.5Z"/>
    <path d="M1125.08,997.95v-89.9h13.56v89.9h-13.56ZM1144.63,908.05h35.24l1.99,13.96-37.24-13.96ZM1144.63,952.07l31.52-6.65-1.6,13.17-29.92-6.52ZM1144.63,997.95l40.56-14.36-4.65,14.36h-35.91Z"/>
  </g>
  <g>
    <g>
      <polygon points="157.85 831.88 359.34 533.83 409.16 533.83 207.67 831.88 157.85 831.88"/>
      <polygon points="175.05 579.24 185.19 533.83 335.53 533.83 175.05 579.24"/>
      <polygon points="230.16 831.88 408.72 786.02 393.73 831.88 230.16 831.88"/>
      <polygon points="436.48 831.88 545.38 610.11 482.34 831.88 436.48 831.88"/>
      <polygon points="673.24 831.88 627.83 737.08 530.84 733.56 617.69 715.48 530.84 533.83 577.57 533.83 719.98 831.88 673.24 831.88"/>
      <rect x="765.37" y="533.83" width="44.97" height="298.05"/>
      <path d="M924.04,624.21c0-41-34.39-81.57-90.39-89.5,7.94-.88,15.87-1.32,23.37-1.32,66.14,0,113.31,33.51,113.31,75.83,0,36.59-36.15,67.02-75.39,74.07,19.84-16.75,29.1-37.92,29.1-59.08Z"/>
      <path d="M931.17,831.88l-104.45-144.17c16.42.05,32.84.1,49.27.15,43.98,48.01,69.84,96.01,113.83,144.02h-58.64Z"/>
      <path d="M1018.43,690.79c0-71.87,51.59-148.58,145.5-161.81-64.81,33.95-96.12,93.03-96.12,151.67,0,61.73,34.83,124.33,101.85,156.52-98.32-3.53-151.23-73.63-151.23-146.38Z"/>
      <path d="M1285.62,685.06c0-61.73-34.83-124.33-101.85-156.52,98.32,3.53,151.23,73.63,151.23,146.38s-51.59,148.58-145.5,161.81c64.81-33.95,96.12-93.03,96.12-151.67Z"/>
    </g>
    <path d="M931.17,831.88l-104.45-144.17c16.42.05,32.84.1,49.27.15,43.98,48.01,69.84,96.01,113.83,144.02h-58.64Z"/>
    <path d="M1285.62,685.06c0-61.73-34.83-124.33-101.85-156.52,98.32,3.53,151.23,73.63,151.23,146.38s-51.59,148.58-145.5,161.81c64.81-33.95,96.12-93.03,96.12-151.67Z"/>
  </g>
</svg>